<svg width="19px" height="17px" viewBox="0 0 19 17" version="1.1" xmlns="http://www.w3.org/2000/svg" xmlns:xlink="http://www.w3.org/1999/xlink">
    <!-- Generator: Sketch 51.3 (57544) - http://www.bohemiancoding.com/sketch -->
    <desc>Created with Sketch.</desc>
    <defs></defs>
    <g id="Page-1" stroke="none" stroke-width="1" fill="none" fill-rule="evenodd">
        <g id="01b-Registration-Company-User" transform="translate(-794.000000, -451.000000)" fill="#9B9B9B">
            <path d="M806.946756,451.460831 C806.468455,450.909332 805.701026,450.857031 805.197942,451.281392 C804.694033,451.705753 804.611425,452.563404 805.023639,453.081737 L809.14124,458.224242 L795.239122,458.224242 C794.555126,458.224242 794,458.795301 794,459.499876 C794,460.204451 794.555126,460.77551 795.239122,460.77551 L809.14124,460.77551 L805.023639,465.918015 C804.611425,466.436348 804.703946,467.282093 805.197942,467.71836 C805.706808,468.168659 806.534541,468.057253 806.946756,467.538921 L812.729737,460.310754 C813.106016,459.765633 813.073799,459.21626 812.729737,458.689423 L806.946756,451.460831 Z" id="Fill-1"></path>
        </g>
    </g>
</svg>
